<svg xmlns="http://www.w3.org/2000/svg" width="42.356" height="42.356" viewBox="0 0 42.356 42.356">
  <path id="Icon_awesome-facebook-square" data-name="Icon awesome-facebook-square" d="M37.818,2.25H4.538A4.538,4.538,0,0,0,0,6.788v33.28a4.538,4.538,0,0,0,4.538,4.538H17.515v-14.4H11.558V23.428h5.956V18.262c0-5.876,3.5-9.122,8.856-9.122A36.085,36.085,0,0,1,31.62,9.6v5.767H28.663c-2.913,0-3.822,1.808-3.822,3.662v4.4h6.5L30.3,30.206H24.842v14.4H37.818a4.538,4.538,0,0,0,4.538-4.538V6.788A4.538,4.538,0,0,0,37.818,2.25Z" transform="translate(0 -2.25)" fill="#272626"/>
</svg>
