<svg xmlns="http://www.w3.org/2000/svg" width="42.356" height="42.356" viewBox="0 0 42.356 42.356">
  <path id="Icon_awesome-github-alt" data-name="Icon awesome-github-alt" d="M16.422,33.7c0,2.305-.962,6.078-3.238,6.078S9.945,36,9.945,33.7s.962-6.078,3.238-6.078,3.238,3.772,3.238,6.078Zm25.934-5.57A29.224,29.224,0,0,1,40.812,38.6c-3.344,8.449-12.539,8.25-19.122,8.25-6.689,0-16.431.3-19.907-8.25A28.7,28.7,0,0,1,0,28.126,22,22,0,0,1,3.662,15.6a21.253,21.253,0,0,1-.679-5.383A13.108,13.108,0,0,1,4.271,4.5a12.127,12.127,0,0,1,9.6,3.971,27.378,27.378,0,0,1,7.827-1.1,24.664,24.664,0,0,1,7.095,1.015A11.975,11.975,0,0,1,38.306,4.5a12.985,12.985,0,0,1,1.288,5.714,20.947,20.947,0,0,1-.679,5.316,22.2,22.2,0,0,1,3.441,12.6ZM36.682,33.7c0-4.842-2.356-9.111-6.486-9.111a29.323,29.323,0,0,0-4.942.662,20.848,20.848,0,0,1-3.98.353,20.975,20.975,0,0,1-3.98-.353,28.849,28.849,0,0,0-4.942-.662c-4.13,0-6.486,4.269-6.486,9.111,0,9.684,7.095,11.173,13.272,11.173h4.253c6.2,0,13.289-1.478,13.289-11.173Zm-7.289-6.078c-2.277,0-3.238,3.772-3.238,6.078s.962,6.078,3.238,6.078S32.632,36,32.632,33.7,31.67,27.619,29.394,27.619Z" transform="translate(0 -4.5)" fill="#272626"/>
</svg>
