<svg xmlns="http://www.w3.org/2000/svg" width="42.356" height="42.356" viewBox="0 0 42.356 42.356">
  <path id="Icon_awesome-instagram" data-name="Icon awesome-instagram" d="M21.178,12.556a10.86,10.86,0,1,0,10.857,10.86A10.841,10.841,0,0,0,21.178,12.556Zm0,17.92a7.06,7.06,0,1,1,7.059-7.06A7.072,7.072,0,0,1,21.178,30.476ZM35.011,12.112a2.532,2.532,0,1,1-2.532-2.533A2.527,2.527,0,0,1,35.011,12.112ZM42.2,14.683c-.161-3.393-.935-6.4-3.421-8.875S33.3,2.557,29.909,2.387c-3.5-.2-13.975-.2-17.472,0-3.383.161-6.388.936-8.873,3.412S.314,11.28.144,14.673c-.2,3.5-.2,13.979,0,17.476.161,3.393.935,6.4,3.421,8.875s5.481,3.251,8.873,3.421c3.5.2,13.975.2,17.472,0,3.392-.161,6.4-.936,8.873-3.421s3.251-5.482,3.421-8.875c.2-3.5.2-13.969,0-17.466ZM37.686,35.9a7.147,7.147,0,0,1-4.025,4.026c-2.788,1.106-9.4.851-12.482.851s-9.7.246-12.482-.851A7.147,7.147,0,0,1,4.67,35.9c-1.106-2.788-.85-9.4-.85-12.485s-.246-9.707.85-12.485A7.147,7.147,0,0,1,8.7,6.9c2.788-1.106,9.4-.851,12.482-.851s9.7-.246,12.482.851a7.147,7.147,0,0,1,4.025,4.026c1.106,2.788.85,9.4.85,12.485S38.791,33.122,37.686,35.9Z" transform="translate(0.005 -2.238)" fill="#272626"/>
</svg>
