<svg xmlns="http://www.w3.org/2000/svg" width="42.356" height="42.356" viewBox="0 0 42.356 42.356">
  <path id="Icon_zocial-linkedin" data-name="Icon zocial-linkedin" d="M-.18,5.136a4.712,4.712,0,0,1,1.431-3.53A5.114,5.114,0,0,1,4.971.216,4.962,4.962,0,0,1,8.61,1.585a4.941,4.941,0,0,1,1.431,3.679,4.608,4.608,0,0,1-1.39,3.423A5.124,5.124,0,0,1,4.89,10.1H4.849A4.879,4.879,0,0,1,1.21,8.687,4.855,4.855,0,0,1-.18,5.136ZM.351,42.572V13.993H9.428v28.58H.351Zm14.105,0h9.076V26.614a6.42,6.42,0,0,1,.327-2.31,6.194,6.194,0,0,1,1.738-2.46,4.316,4.316,0,0,1,2.923-1.005q4.579,0,4.579,6.46V42.572h9.076V26.186q0-6.332-2.862-9.605a9.556,9.556,0,0,0-7.564-3.273,9.191,9.191,0,0,0-8.218,4.749v.086h-.041l.041-.086V13.993H14.457q.082,1.369.082,8.514t-.082,20.066Z" transform="translate(0.18 -0.216)" fill="#272626"/>
</svg>
